<svg width="80" height="80" viewBox="0 0 80 80" fill="none" xmlns="http://www.w3.org/2000/svg">
<rect width="80" height="80" rx="40" fill="#141C4E"/>
<path fill-rule="evenodd" clip-rule="evenodd" d="M32.2147 31.1626H32.1631L32.113 31.1751L24.5287 33.0712C24.304 33.1274 24.1674 33.355 24.2236 33.5797C24.2797 33.8044 24.5074 33.941 24.732 33.8848L32.2663 32.0012H39.4546H41.1205H48.3089L55.8431 33.8848C56.0678 33.941 56.2955 33.8044 56.3516 33.5797C56.4078 33.355 56.2712 33.1274 56.0465 33.0712L48.4622 31.1751L48.4121 31.1626H48.3605H41.1205H39.4546H32.2147Z" fill="white"/>
<path fill-rule="evenodd" clip-rule="evenodd" d="M25.8264 30.5525C26.4256 25.0828 32.7097 20.78 40.3737 20.78C48.0575 20.78 54.3544 25.105 54.9256 30.595L56.3863 30.9443C56.6115 30.9981 56.7505 31.2244 56.6966 31.4496C56.6427 31.6748 56.4165 31.8138 56.1913 31.7599L48.3103 29.8753H41.1205H39.4539H32.2641L24.3831 31.7599C24.1579 31.8138 23.9317 31.6748 23.8778 31.4496C23.8239 31.2244 23.9629 30.9981 24.1881 30.9443L25.8264 30.5525Z" fill="white"/>
<path fill-rule="evenodd" clip-rule="evenodd" d="M49.353 33.4408L57.4952 35.6614C57.1275 35.6614 56.9972 36.3508 56.9781 36.6956V39.5684H64.1028L65.0221 40.6601C64.2866 40.9819 64.1028 41.6752 64.1028 41.9816V44.165H62.2067V40.6601H40.7753V40.6603H18.9416V44.1652H17.0455V41.9818C17.0455 41.6754 16.8617 40.9821 16.1262 40.6603L17.0455 39.5687H24.1702V36.6958C24.1511 36.3511 24.0208 35.6616 23.6531 35.6616L31.7953 33.441C32.151 33.344 32.5015 33.6117 32.5015 33.9803V38.3621H33.823V33.8075C33.823 33.4987 34.0733 33.2484 34.3821 33.2484H40.373V33.2482H46.7662C47.075 33.2482 47.3253 33.4985 47.3253 33.8072V38.3618H48.6468V33.9801C48.6468 33.6115 48.9973 33.3438 49.353 33.4408ZM56.2891 37.4998V39.5683H53.9334V37.4998C53.9793 36.3047 54.8335 35.8527 55.2549 35.7761C55.9444 36.0979 56.2316 37.0593 56.2891 37.4998ZM52.3818 39.6258V37.1186C52.3089 36.5846 51.9446 35.4192 51.0701 35.0292C50.5357 35.1221 49.4523 35.67 49.3941 37.1186V39.6258H52.3818ZM46.2341 36.1785V38.3618H42.0397V36.1785C42.3844 35.6614 43.1314 34.742 44.1656 34.3398C45.1768 34.7535 45.8319 35.6039 46.2341 36.1785ZM24.8593 37.5V39.5684H27.215V37.5C27.1691 36.3049 26.3149 35.8529 25.8935 35.7763C25.204 36.098 24.9168 37.0595 24.8593 37.5ZM28.7668 39.626V37.1187C28.8397 36.5848 29.204 35.4194 30.0785 35.0294C30.6129 35.1222 31.6963 35.6701 31.7546 37.1187V39.626H28.7668ZM34.9151 36.1785V38.3619H39.1095V36.1785C38.7648 35.6614 38.0178 34.7421 36.9836 34.3399C35.9724 34.7536 35.3173 35.604 34.9151 36.1785Z" fill="#FFC223"/>
<path fill-rule="evenodd" clip-rule="evenodd" d="M29.6283 59.0465H17.2751H14C14 59.0465 15.5513 58.1877 15.5513 57.2653V47.4976C15.5513 47.1911 15.3675 46.4978 14.632 46.1761L15.5513 45.0844H22.676H31.8117V43.0673C31.8117 42.3725 32.3749 41.8093 33.0696 41.8093H41.3496V41.8093H47.5048C48.1996 41.8093 48.7628 42.3725 48.7628 43.0673V45.0844H57.8985H65.0231L65.9424 46.1761C65.207 46.4978 65.0231 47.1912 65.0231 47.4976V57.2653C65.0231 58.1877 66.5745 59.0465 66.5745 59.0465H63.2994H50.9461L50.1417 58.0122H63.2994V46.1761H48.7628V58.357C49.6821 58.357 50.4865 59.5061 50.4865 60.368C50.4865 60.5978 50.4865 61 49.6821 61H45.0855C44.3386 61 44.3386 60.7127 44.3386 60.368C44.3386 59.5061 45.0396 58.357 46.0048 58.357V44.2225H39.2249V44.2225H34.5696V58.357C35.5349 58.357 36.2359 59.5061 36.2359 60.368C36.2359 60.7127 36.2359 61 35.489 61H30.8924C30.088 61 30.088 60.5978 30.088 60.368C30.088 59.5061 30.8924 58.357 31.8117 58.357V46.1761H17.2751V58.0122H30.4327L29.6283 59.0465Z" fill="#FFC223"/>
<path d="M21.2511 56.7377H18.0364V50.3082C18.0364 49.2166 19.7136 48.0719 19.7136 48.0719C19.7136 48.0719 21.2511 49.2484 21.2511 50.3082V56.7377Z" fill="white"/>
<path d="M25.8634 56.7377H22.6487V50.3082C22.6487 49.2166 24.3259 48.0719 24.3259 48.0719C24.3259 48.0719 25.8634 49.2484 25.8634 50.3082V56.7377Z" fill="white"/>
<path d="M30.476 56.7377H27.2612V50.3082C27.2612 49.2166 28.9385 48.0719 28.9385 48.0719C28.9385 48.0719 30.476 49.2484 30.476 50.3082V56.7377Z" fill="white"/>
<path d="M18.0713 57.8558L17.1628 59.0439H31.3495L30.6507 57.8558H18.0713Z" fill="white"/>
<path d="M53.1974 56.7377H49.9827V50.3082C49.9826 49.2166 51.6599 48.0719 51.6599 48.0719C51.6599 48.0719 53.1974 49.2484 53.1974 50.3082V56.7377Z" fill="white"/>
<path d="M57.8099 56.7377H54.5952V50.3082C54.5952 49.2166 56.2725 48.0719 56.2725 48.0719C56.2725 48.0719 57.8099 49.2484 57.8099 50.3082V56.7377Z" fill="white"/>
<path d="M62.4222 56.7377H59.2075V50.3082C59.2075 49.2166 60.8848 48.0719 60.8848 48.0719C60.8848 48.0719 62.4222 49.2484 62.4222 50.3082V56.7377Z" fill="white"/>
<path d="M50.0176 57.8558L49.1091 59.0439H63.2958L62.597 57.8558H50.0176Z" fill="white"/>
<path fill-rule="evenodd" clip-rule="evenodd" d="M40.6597 58.2421H44.51V50.4278H40.6597L40.6597 58.2421ZM40.2001 58.2421L40.2001 50.4278H36.3511V58.2421H40.2001ZM36.3511 49.9682V49.3511C36.351 47.7731 40.4305 45.7164 40.4305 45.7164C40.4305 45.7164 44.51 47.8192 44.51 49.3511V49.9682H36.3511Z" fill="white"/>
<path fill-rule="evenodd" clip-rule="evenodd" d="M40.4876 18.769C38.812 18.769 37.293 19.2517 36.4656 20.2629C37.27 20.1672 38.9129 19.9756 40.4876 19.9756C42.0623 19.9756 43.7052 20.1672 44.5096 20.2629C43.6822 19.2517 42.1631 18.769 40.4876 18.769Z" fill="white"/>
<path fill-rule="evenodd" clip-rule="evenodd" d="M40.1444 17.3592V16.2983C40.1444 15.8495 40.5341 14 40.5341 14C40.5341 14 40.8913 15.8626 40.8913 16.2983V17.3691C41.445 17.4732 41.9261 17.8001 42.2131 18.3666C41.8683 18.3003 41.1642 18.1678 40.4893 18.1678C39.8145 18.1678 39.1104 18.3003 38.7656 18.3666C39.0624 17.7807 39.5668 17.4511 40.1444 17.3592Z" fill="white"/>
</svg>
